<svg width="26" height="25" viewBox="0 0 26 25" fill="none" xmlns="http://www.w3.org/2000/svg">
<path d="M13 24.6445C19.6211 24.6445 25.1055 19.1719 25.1055 12.5391C25.1055 5.91797 19.6211 0.433594 12.9883 0.433594C6.36719 0.433594 0.894531 5.91797 0.894531 12.5391C0.894531 19.1719 6.37891 24.6445 13 24.6445ZM13 22.2656C7.60938 22.2656 3.28516 17.9297 3.28516 12.5391C3.28516 7.14844 7.59766 2.82422 12.9883 2.82422C18.3789 2.82422 22.7148 7.14844 22.7266 12.5391C22.7266 17.9297 18.3906 22.2656 13 22.2656ZM8.27734 18.3281L14.8281 15.2109C15.2266 15.0234 15.4961 14.7539 15.6836 14.3672L18.7773 7.82812C19.1758 6.98438 18.5664 6.35156 17.6992 6.75L11.1602 9.85547C10.7852 10.0312 10.5273 10.2891 10.3164 10.6992L7.21094 17.25C6.82422 18.0703 7.46875 18.7031 8.27734 18.3281ZM13 14.0273C12.1914 14.0273 11.5234 13.3594 11.5234 12.5508C11.5234 11.7422 12.1914 11.0742 13 11.0742C13.8203 11.0742 14.4766 11.7422 14.4766 12.5508C14.4766 13.3594 13.8203 14.0273 13 14.0273Z" fill="black"/>
</svg>
